<?xml version="1.0" encoding="UTF-8" standalone="no"?>
<!-- Created with Inkscape (http://www.inkscape.org/) -->

<svg
   xmlns:dc="http://purl.org/dc/elements/1.1/"
   xmlns:cc="http://creativecommons.org/ns#"
   xmlns:rdf="http://www.w3.org/1999/02/22-rdf-syntax-ns#"
   xmlns:svg="http://www.w3.org/2000/svg"
   xmlns="http://www.w3.org/2000/svg"
   xmlns:sodipodi="http://sodipodi.sourceforge.net/DTD/sodipodi-0.dtd"
   xmlns:inkscape="http://www.inkscape.org/namespaces/inkscape"
   width="218.54601mm"
   height="58.737mm"
   viewBox="0 0 218.54601 58.737005"
   version="1.1"
   id="svg8"
   inkscape:version="0.92.4 (5da689c313, 2019-01-14)"
   sodipodi:docname="dessin.svg">
  <defs
     id="defs2" />
  <sodipodi:namedview
     id="base"
     pagecolor="#ffffff"
     bordercolor="#666666"
     borderopacity="1.0"
     inkscape:pageopacity="0.0"
     inkscape:pageshadow="2"
     inkscape:zoom="1"
     inkscape:cx="381.36443"
     inkscape:cy="-84.270903"
     inkscape:document-units="mm"
     inkscape:current-layer="layer1"
     showgrid="false"
     units="mm"
     inkscape:window-width="1920"
     inkscape:window-height="1018"
     inkscape:window-x="-8"
     inkscape:window-y="-8"
     inkscape:window-maximized="1" />
  <metadata
     id="metadata5">
    <rdf:RDF>
      <cc:Work
         rdf:about="">
        <dc:format>image/svg+xml</dc:format>
        <dc:type
           rdf:resource="http://purl.org/dc/dcmitype/StillImage" />
        <dc:title></dc:title>
      </cc:Work>
    </rdf:RDF>
  </metadata>
  <g
     inkscape:label="Calque 1"
     inkscape:groupmode="layer"
     id="layer1"
     transform="translate(0,-238.26298)">
    <path
       style="fill:#ffffff;fill-opacity:1;stroke-width:0.26458219"
       d="m 169.33334,282.31573 v -14.68425 h 1.05833 1.05834 v 14.68425 14.68425 h -1.05834 -1.05833 z m -89.958336,-1.19061 v -13.49364 h 1.058334 1.058333 v 13.49364 13.49363 h -1.058333 -1.058334 z m 92.604166,0 v -13.49364 h 1.05834 1.05833 v 13.49364 13.49363 h -1.05833 -1.05834 z m -89.958332,-0.39688 v -13.09676 h 1.058333 1.058334 v 13.09676 13.09677 h -1.058334 -1.058333 z m 18.520832,0 v -13.09676 h 1.05833 1.05834 v 13.09676 13.09677 H 101.6 100.54167 Z m -2.645832,-1.58749 v -11.50927 h 1.058333 1.058329 v 11.50927 11.50928 h -1.058329 -1.058333 z m 68.791672,0 v -11.50927 h 1.05833 1.05833 v 11.50927 11.50928 h -1.05833 -1.05833 z M 10.583336,278.74389 v -11.11241 h 1.058333 1.058333 v 11.11241 11.1124 h -1.058333 -1.058333 z m 66.145835,0 v -11.11241 h 1.058333 1.058334 v 11.11241 11.1124 h -1.058334 -1.058333 z m 26.458329,0 v -11.11241 h 1.05834 1.05833 v 11.11241 11.1124 h -1.05833 -1.05834 z m -18.520829,-1.05834 v -10.05407 h 1.058334 1.058333 v 10.05407 10.05409 h -1.058333 -1.058334 z m 89.958339,-0.39686 v -9.65721 h 1.05833 1.05833 v 9.65721 9.65721 h -1.05833 -1.05833 z M 7.937502,276.89181 v -9.26033 h 1.058334 1.058333 v 9.26033 9.26034 H 8.995836 7.937502 Z m 5.291667,0 v -9.26033 h 1.058333 1.058334 v 9.26033 9.26034 h -1.058334 -1.058333 z m 82.020835,-0.66145 v -8.59888 h 1.058334 1.058333 v 8.59888 8.59888 h -1.058333 -1.058334 z m 68.791666,-1.05832 v -7.54056 h 1.05834 1.05833 v 7.54056 7.54056 h -1.05833 -1.05834 z M 87.312505,274.246 v -6.61452 h 1.058333 1.058333 v 6.61452 6.61453 h -1.058333 -1.058333 z m 60.854165,0 v -6.61452 h 1.05834 1.05833 v 6.61452 6.61453 h -1.05833 -1.05834 z m -74.083332,-0.66145 v -5.95307 h 1.058333 1.058333 v 5.95307 5.95308 h -1.058333 -1.058333 z m 18.520833,0 v -5.95307 h 1.058333 1.058333 v 5.95307 5.95308 h -1.058333 -1.058333 z m 13.229169,0 v -5.95307 h 1.05833 1.05833 v 5.95307 5.95308 h -1.05833 -1.05833 z m 44.97917,0 v -5.95307 h 1.05833 1.05833 v 5.95307 5.95308 h -1.05833 -1.05833 z M 31.750003,273.18768 v -5.5562 h 1.058333 1.058334 v 5.5562 5.55621 h -1.058334 -1.058333 z m -15.875001,-0.39687 v -5.15933 h 1.058334 1.058333 v 5.15933 5.15933 H 16.933336 15.875002 Z M 5.29167,272.39394 v -4.76246 H 6.35 7.408336 v 4.76246 4.76246 H 6.35 5.29167 Z m 84.666668,0 v -4.76246 h 1.058333 1.058334 v 4.76246 4.76246 H 91.016671 89.958338 Z M 29.10417,271.6002 v -3.96872 h 1.058333 1.058333 v 3.96872 3.96871 H 30.162503 29.10417 Z m 5.291666,0 v -3.96872 h 1.058334 1.058333 v 3.96872 3.96871 H 35.45417 34.395836 Z m 142.875004,0 v -3.96872 h 1.05833 1.05834 v 3.96872 3.96871 h -1.05834 -1.05833 z m 15.875,-0.1323 v -3.83642 h 1.05834 1.05833 v 3.83642 3.83642 h -1.05833 -1.05834 z m 23.8125,0 v -3.83642 h 0.79375 0.79375 v 3.83642 3.83642 h -0.79375 -0.79375 z m -71.4375,-0.39687 v -3.43955 h 1.05833 1.05834 v 3.43955 3.43955 h -1.05834 -1.05833 z m 7.9375,0 v -3.43955 h 1.05833 1.05834 v 3.43955 3.43955 h -1.05834 -1.05833 z m 7.9375,0 v -3.43955 h 1.05833 1.05834 v 3.43955 3.43955 h -1.05834 -1.05833 z m 29.10417,0 v -3.43955 h 1.05833 1.05834 v 3.43955 3.43955 h -1.05834 -1.05833 z m 23.8125,-1.05832 v -2.38123 h 1.05833 1.05833 v 2.38123 2.38123 h -1.05833 -1.05833 z m -58.20834,-1.19062 v -1.19061 h 1.05834 1.05833 v 1.19061 1.19062 h -1.05833 -1.05834 z m 2.64584,0 v -1.19061 h 1.05833 1.05833 v 1.19061 1.19062 h -1.05833 -1.05833 z m 37.04167,0 v -1.19061 h 1.05833 1.05833 v 1.19061 1.19062 h -1.05833 -1.05833 z M 18.520836,268.6898 v -1.05832 h 1.058333 1.058334 v 1.05832 1.05832 h -1.058334 -1.058333 z m 7.9375,0 v -1.05832 h 1.058334 1.058333 v 1.05832 1.05832 H 27.51667 26.458336 Z m 161.395834,-0.13229 c 0,-0.90399 0.0252,-0.92603 1.05834,-0.92603 1.03313,0 1.05833,0.022 1.05833,0.92603 0,0.90398 -0.0252,0.92603 -1.05833,0.92603 -1.03314,0 -1.05834,-0.022 -1.05834,-0.92603 z M 0,264.19192 v -3.43955 h 1.05833 1.05834 v 3.43955 3.43956 H 1.05833 0 Z m 2.64583,3.04268 c 0,-0.28662 0.29398,-0.39686 1.05834,-0.39686 0.76435,0 1.05833,0.11024 1.05833,0.39686 0,0.28663 -0.29398,0.39688 -1.05833,0.39688 -0.76436,0 -1.05834,-0.11025 -1.05834,-0.39688 z m 18.520839,-1.3229 v -1.71978 h 1.058334 1.058333 v 1.71978 1.71978 h -1.058333 -1.058334 z m 2.645834,0.66145 v -1.05832 h 1.058333 1.058333 v 1.05832 1.05833 h -1.058333 -1.058333 z m 13.229167,0.1323 c 0,-0.90399 0.02519,-0.92604 1.058333,-0.92604 1.033135,0 1.058334,0.022 1.058334,0.92604 0,0.90398 -0.02519,0.92603 -1.058334,0.92603 -1.033134,0 -1.058333,-0.022 -1.058333,-0.92603 z m 2.645833,-5.02705 v -5.95307 h 1.058334 1.058333 v 5.95307 5.95308 h -1.058333 -1.058334 z m 2.645834,-5.15933 v -11.1124 h 1.058333 1.058333 v 11.1124 11.11241 H 43.39167 42.333337 Z m 2.645833,-1.98436 v -13.09676 h 1.058333 1.058334 v 13.09676 13.09677 H 46.037503 44.97917 Z m 2.645833,1.58749 v -11.50927 h 1.058334 1.058333 v 11.50927 11.50928 h -1.058333 -1.058334 z m 2.645834,3.43956 v -8.06973 h 1.058333 1.058334 v 8.06973 8.06972 H 51.32917 50.270837 Z m 2.645833,3.96871 v -4.10101 h 1.058334 1.058333 v 4.10101 4.10101 H 53.975004 52.91667 Z m 2.645834,2.38123 v -1.71978 h 1.058333 1.058333 v 1.71978 1.71978 h -1.058333 -1.058333 z m 2.645833,-0.66145 v -2.38123 h 1.058333 1.058334 v 2.38123 2.38123 H 59.26667 58.208337 Z m 2.645834,-1.71978 v -4.10101 h 1.058333 1.058333 v 4.10101 4.10101 h -1.058333 -1.058333 z m 2.645833,-3.43956 v -7.54055 h 1.058333 1.058334 v 7.54055 7.54057 h -1.058334 -1.058333 z m 2.645833,-0.52915 v -8.06973 h 1.058334 1.058333 v 8.06973 8.06972 h -1.058333 -1.058334 z m 2.645834,2.11664 v -5.95307 h 1.058333 1.058333 v 5.95307 5.95308 h -1.058333 -1.058333 z m 2.645833,4.76246 v -1.19061 h 1.058334 1.058333 v 1.19061 1.19062 h -1.058333 -1.058334 z m 37.041666,0 v -1.19061 h 1.05833 1.05834 v 1.19061 1.19062 h -1.05834 -1.05833 z m 2.64583,-5.42391 v -6.61453 h 1.05834 1.05833 v 6.61453 6.61453 h -1.05833 -1.05834 z m 2.64584,-3.04268 v -9.65722 h 1.05833 1.05834 v 9.65722 9.65721 h -1.05834 -1.05833 z m 2.64583,0.39687 v -9.26034 h 1.05834 1.05833 v 9.26034 9.26034 h -1.05833 -1.05834 z m 2.64584,1.71977 v -7.54055 h 1.05833 1.05833 v 7.54055 7.54057 h -1.05833 -1.05833 z m 2.64583,2.9104 v -4.63017 h 1.05833 1.05834 v 4.63017 4.63017 h -1.05834 -1.05833 z m 2.64583,0.79374 v -3.83642 h 1.05834 1.05833 v 3.83642 3.83643 h -1.05833 -1.05834 z m 2.64584,-1.71977 v -5.55621 h 1.05833 1.05833 v 5.55621 5.5562 h -1.05833 -1.05833 z m 2.64583,-3.70414 v -9.26034 h 1.05833 1.05834 v 9.26034 9.26034 h -1.05834 -1.05833 z m 2.64583,-3.83643 v -13.09676 h 1.05834 1.05833 v 13.09676 13.09677 h -1.05833 -1.05834 z m 2.64584,-1.58748 v -14.68425 h 1.05833 1.05833 v 14.68425 14.68425 h -1.05833 -1.05833 z m 2.64583,1.58748 v -13.09676 h 1.05833 1.05834 v 13.09676 13.09677 h -1.05834 -1.05833 z m 2.64583,5.02705 v -8.06973 h 1.05834 1.05833 v 8.06973 8.06972 h -1.05833 -1.05834 z m 2.64584,5.95307 v -2.11665 h 1.05833 1.05833 v 2.11665 2.11665 h -1.05833 -1.05833 z m 37.04166,1.19062 c 0,-0.90399 0.0252,-0.92604 1.05834,-0.92604 1.03313,0 1.05833,0.022 1.05833,0.92604 0,0.90398 -0.0252,0.92603 -1.05833,0.92603 -1.03314,0 -1.05834,-0.022 -1.05834,-0.92603 z m 2.64584,-1.85208 v -2.77809 h 1.05833 1.05833 v 2.77809 2.77811 h -1.05833 -1.05833 z m 2.64583,0.79375 v -1.98436 h 1.05833 1.05834 v 1.98436 1.98436 h -1.05834 -1.05833 z m 13.22917,-1.05832 v -3.04269 h 1.05833 1.05834 v 3.04269 3.04268 h -1.05834 -1.05833 z m 2.64583,-4.49789 v -7.54055 h 1.05834 1.05833 v 7.54055 7.54057 h -1.05833 -1.05834 z m 2.64584,-3.04268 v -10.58324 h 1.05833 1.05833 v 10.58324 10.58325 h -1.05833 -1.05833 z m 2.64583,0.52917 v -10.05409 h 1.05833 1.05833 v 10.05409 10.05408 h -1.05833 -1.05833 z m 2.64583,3.43955 v -6.61453 h 1.05833 1.05834 v 6.61453 6.61453 h -1.05834 -1.05833 z m 2.64583,5.02704 v -1.58748 h 1.05834 1.05833 v 1.58748 1.58749 h -1.05833 -1.05834 z"
       id="path845"
       inkscape:connector-curvature="0" />
  </g>
</svg>
